<svg width="68" height="37" viewBox="0 0 68 37" fill="none" xmlns="http://www.w3.org/2000/svg">
<path d="M20.4148 10.6875C20.2557 9.19886 19.5852 8.03977 18.4034 7.21023C17.233 6.38068 15.7102 5.96591 13.8352 5.96591C12.517 5.96591 11.3864 6.16477 10.4432 6.5625C9.5 6.96023 8.77841 7.5 8.27841 8.18182C7.77841 8.86364 7.52273 9.64205 7.51136 10.517C7.51136 11.2443 7.67614 11.875 8.00568 12.4091C8.34659 12.9432 8.80682 13.3977 9.38636 13.7727C9.96591 14.1364 10.608 14.4432 11.3125 14.6932C12.017 14.9432 12.7273 15.1534 13.4432 15.3239L16.7159 16.142C18.0341 16.4489 19.3011 16.8636 20.517 17.3864C21.7443 17.9091 22.8409 18.5682 23.8068 19.3636C24.7841 20.1591 25.5568 21.1193 26.125 22.2443C26.6932 23.3693 26.9773 24.6875 26.9773 26.1989C26.9773 28.2443 26.4545 30.0455 25.4091 31.6023C24.3636 33.1477 22.8523 34.358 20.875 35.233C18.9091 36.0966 16.5284 36.5284 13.733 36.5284C11.017 36.5284 8.65909 36.108 6.65909 35.267C4.67045 34.4261 3.11364 33.1989 1.98864 31.5852C0.875 29.9716 0.272727 28.0057 0.181818 25.6875H6.40341C6.49432 26.9034 6.86932 27.9148 7.52841 28.7216C8.1875 29.5284 9.04545 30.1307 10.1023 30.5284C11.1705 30.9261 12.3636 31.125 13.6818 31.125C15.0568 31.125 16.2614 30.9205 17.2955 30.5114C18.3409 30.0909 19.1591 29.5114 19.75 28.7727C20.3409 28.0227 20.642 27.1477 20.6534 26.1477C20.642 25.2386 20.375 24.4886 19.8523 23.8977C19.3295 23.2955 18.5966 22.7955 17.6534 22.3977C16.7216 21.9886 15.6307 21.625 14.3807 21.3068L10.4091 20.2841C7.53409 19.5455 5.26136 18.4261 3.59091 16.9261C1.93182 15.4148 1.10227 13.4091 1.10227 10.9091C1.10227 8.85227 1.65909 7.05114 2.77273 5.50568C3.89773 3.96023 5.42614 2.76136 7.35795 1.90909C9.28977 1.04545 11.4773 0.613635 13.9205 0.613635C16.3977 0.613635 18.5682 1.04545 20.4318 1.90909C22.3068 2.76136 23.7784 3.94886 24.8466 5.47159C25.9148 6.98295 26.4659 8.72159 26.5 10.6875H20.4148ZM36.4673 36.2557C35.1605 36.2557 34.0384 35.9688 33.1009 35.3949C32.169 34.821 31.4503 34.0284 30.9446 33.017C30.4446 32 30.1946 30.8295 30.1946 29.5057C30.1946 28.1761 30.4503 27.0028 30.9616 25.9858C31.473 24.9631 32.1946 24.1676 33.1264 23.5994C34.0639 23.0256 35.1719 22.7386 36.4503 22.7386C37.5128 22.7386 38.4531 22.9347 39.2713 23.3267C40.0952 23.7131 40.7514 24.2614 41.2401 24.9716C41.7287 25.6761 42.0071 26.5 42.0753 27.4432H39.1264C39.0071 26.8125 38.723 26.2869 38.2741 25.8665C37.831 25.4403 37.2372 25.2273 36.4929 25.2273C35.8622 25.2273 35.3082 25.3977 34.831 25.7386C34.3537 26.0739 33.9815 26.5568 33.7145 27.1875C33.4531 27.8182 33.3224 28.5739 33.3224 29.4545C33.3224 30.3466 33.4531 31.1136 33.7145 31.7557C33.9759 32.392 34.3423 32.8835 34.8139 33.2301C35.2912 33.571 35.8509 33.7415 36.4929 33.7415C36.9474 33.7415 37.3537 33.6562 37.7116 33.4858C38.0753 33.3097 38.3793 33.0568 38.6236 32.7273C38.8679 32.3977 39.0355 31.9972 39.1264 31.5256H42.0753C42.0014 32.4517 41.7287 33.2727 41.2571 33.9886C40.7855 34.6989 40.1435 35.2557 39.331 35.6591C38.5185 36.0568 37.5639 36.2557 36.4673 36.2557ZM54.478 36H45.6058V9.81818H54.657C57.2564 9.81818 59.4893 10.3423 61.3558 11.3906C63.2308 12.4304 64.6712 13.9261 65.6768 15.8778C66.6825 17.8295 67.1854 20.1648 67.1854 22.8835C67.1854 25.6108 66.6783 27.9545 65.6641 29.9148C64.6584 31.875 63.2053 33.3793 61.3047 34.4276C59.4126 35.4759 57.1371 36 54.478 36ZM50.3487 31.8963H54.2479C56.0717 31.8963 57.593 31.5639 58.8118 30.8991C60.0305 30.2259 60.9467 29.2244 61.5604 27.8949C62.174 26.5568 62.4808 24.8864 62.4808 22.8835C62.4808 20.8807 62.174 19.2187 61.5604 17.8977C60.9467 16.5682 60.0391 15.5753 58.8374 14.919C57.6442 14.2543 56.1612 13.9219 54.3885 13.9219H50.3487V31.8963Z" fill="#65AF47"/>
</svg>
